<?xml version="1.0" encoding="UTF-8" standalone="no"?>
<svg
   viewBox="0 0 512 512"
   version="1.1"
   id="svg58"
   sodipodi:docname="thumb_up_outline.svg"
   inkscape:version="1.2.2 (b0a84865, 2022-12-01)"
   xmlns:inkscape="http://www.inkscape.org/namespaces/inkscape"
   xmlns:sodipodi="http://sodipodi.sourceforge.net/DTD/sodipodi-0.dtd"
   xmlns="http://www.w3.org/2000/svg"
   xmlns:svg="http://www.w3.org/2000/svg">
  <defs
     id="defs62">
    <linearGradient
       id="linearGradient17055"
       inkscape:swatch="solid">
      <stop
         style="stop-color:#2a7538;stop-opacity:1;"
         offset="0"
         id="stop17053" />
    </linearGradient>
  </defs>
  <sodipodi:namedview
     id="namedview60"
     pagecolor="#ffffff"
     bordercolor="#000000"
     borderopacity="0.25"
     inkscape:showpageshadow="2"
     inkscape:pageopacity="0.0"
     inkscape:pagecheckerboard="0"
     inkscape:deskcolor="#d1d1d1"
     showgrid="false"
     inkscape:zoom="0.4609375"
     inkscape:cx="-90.033898"
     inkscape:cy="256"
     inkscape:window-width="1920"
     inkscape:window-height="1052"
     inkscape:window-x="1920"
     inkscape:window-y="28"
     inkscape:window-maximized="0"
     inkscape:current-layer="svg58" />
  <!--! Font Awesome Pro 6.4.0 by @fontawesome - https://fontawesome.com License - https://fontawesome.com/license (Commercial License) Copyright 2023 Fonticons, Inc. -->
  <g
     id="path17339"
     style="opacity:0.955556">
    <path
       style="color:#000000;fill:#008000;stroke-width:6;-inkscape-stroke:none;opacity:0"
       d="m 32,208.81641 c -8.642061,0 -15.183594,6.54153 -15.183594,15.18359 v 224 c 0,8.64206 6.541533,15.18359 15.183594,15.18359 h 64 c 8.64206,0 15.18359,-6.54153 15.18359,-15.18359 V 224 c 0,-8.64206 -6.54153,-15.18359 -15.18359,-15.18359 z"
       id="path17343" />
    <path
       style="color:#000000;fill:#324692;-inkscape-stroke:none;stroke:#324692;stroke-opacity:1;fill-opacity:1;stroke-width:8"
       d="m 32,205.81641 c -10.155933,0 -18.183594,8.02766 -18.183594,18.18359 v 224 c 0,10.15593 8.027661,18.18359 18.183594,18.18359 h 64 c 10.15593,0 18.18359,-8.02766 18.18359,-18.18359 V 224 c 0,-10.15593 -8.02766,-18.18359 -18.18359,-18.18359 z m 0,6 h 64 c 7.12817,0 12.18359,5.05542 12.18359,12.18359 v 224 c 0,7.12817 -5.05542,12.18359 -12.18359,12.18359 H 32 c -7.128172,0 -12.183594,-5.05542 -12.183594,-12.18359 V 224 c 0,-7.12817 5.055422,-12.18359 12.183594,-12.18359 z"
       id="path17345" />
  </g>
  <path
     style="opacity:1;fill-opacity:1;stroke:#324692;fill:#324692;stroke-opacity:1"
     d="m 302.72852,48.849609 c -23.46267,0.54736 -44.92837,16.048354 -51.75391,39.958985 v 0.002 c -4.1e-4,0.0014 -0.002,0.0025 -0.002,0.0039 l -5.69922,19.994136 c -4.41769,15.51808 -12.39583,29.79635 -23.23633,41.70899 l 0.004,-0.002 -51.29102,56.39063 c -0.001,0.001 -9.2e-4,0.003 -0.002,0.004 -2.78331,3.06814 -2.57994,7.38078 0.45898,10.14062 3.06836,2.78657 7.38367,2.58303 10.14453,-0.45703 a 16.819044,16.819044 0 0 1 0.008,-0.01 l 51.29882,-56.40039 a 16.819044,16.819044 0 0 1 0.002,0 c 12.36106,-13.5884 21.37116,-29.78107 26.35937,-47.37109 a 16.819044,16.819044 0 0 1 0.006,-0.0215 l 5.69531,-19.976566 c 6.09628,-21.506315 28.92674,-34.151771 50.43164,-28.103515 21.58749,6.071481 34.163,29.014637 28.13672,50.441401 a 16.819044,16.819044 0 0 1 -0.0156,0.0566 l -5.69922,20 a 16.819044,16.819044 0 0 1 -0.006,0.0215 c -6.21825,21.70933 -16.03602,42.22434 -29.04492,60.58984 a 16.819044,16.819044 0 0 1 -0.0254,0.0371 c -1.51291,2.12389 -1.73659,4.92641 -0.43164,7.47266 1.24576,2.43076 3.56263,3.85351 6.33398,3.85351 H 448 c 17.97311,0 32.81641,14.8433 32.81641,32.81641 0,13.88362 -8.73308,25.99462 -21.26563,30.72852 -2.34239,0.88631 -3.9619,2.72428 -4.52344,5 -0.58486,2.37024 0.0241,4.77617 1.58985,6.55273 l -0.0723,-0.082 c 5.17576,5.79685 8.27149,13.59898 8.27149,21.80078 0,15.84934 -11.47128,29.34354 -26.68946,32.22266 l 0.0937,-0.0176 c -2.56983,0.50143 -4.66068,2.31514 -5.45703,4.45703 -0.87205,2.34553 -0.45028,5.13153 1.04492,7.0293 a 16.819044,16.819044 0 0 1 0.0664,0.084 c 4.23543,5.44556 6.94141,12.58792 6.94141,20.22461 0,13.72685 -8.46887,25.80141 -20.9961,30.60352 l 0.10938,-0.043 c -3.64827,1.42758 -5.3708,4.8705 -4.32422,8.64453 l -0.13086,-0.45117 c 1.00742,3.27413 1.3418,6.25413 1.3418,9.24609 0,17.97311 -14.8433,32.81641 -32.81641,32.81641 h -97.5 c -15.89159,0 -31.51882,-4.65057 -44.82812,-13.52344 l -61.69532,-41.09766 a 16.819044,16.819044 0 0 1 -0.0625,-0.043 c -3.41665,-2.29847 -7.52557,-1.51828 -9.92187,2.07618 -2.40984,3.61476 -1.61786,7.54317 2.03515,9.97851 l 61.69727,41.09766 a 16.819044,16.819044 0 0 1 0.0215,0.0156 c 15.6201,10.4417 33.95084,15.96289 52.75391,15.96289 H 384 c 25.78244,0 46.37567,-20.2103 47.19141,-45.7207 a 16.819044,16.819044 0 0 1 6.29101,-12.58594 c 10.78052,-8.63918 17.70117,-21.76852 17.70117,-36.87695 0,-3.25233 -0.35731,-6.45888 -1.0039,-9.85352 a 16.819044,16.819044 0 0 1 6.3457,-16.53711 c 11.36507,-8.6345 18.6582,-22.14607 18.6582,-37.60937 0,-4.7738 -0.73753,-9.42248 -2.07031,-13.79102 a 16.819044,16.819044 0 0 1 4.14258,-16.74804 c 8.65262,-8.72721 13.92773,-20.42168 13.92773,-33.56055 0,-26.2164 -20.8732,-47.18359 -47.18359,-47.18359 H 355.69922 A 16.819044,16.819044 0 0 1 340.375,169.07422 c 4.37571,-9.68242 8.08271,-19.70603 10.9375,-29.83594 a 16.819044,16.819044 0 0 1 0.0137,-0.0469 l 5.69922,-20 a 16.819044,16.819044 0 0 1 0.002,-0.006 c 8.40652,-29.461373 -8.40937,-59.814636 -37.84179,-68.212894 -5.52584,-1.576744 -11.0445,-2.249315 -16.45703,-2.123047 z"
     id="path955" />
</svg>
